<?xml version="1.0" encoding="utf-8"?>
<!-- Generator: Adobe Illustrator 15.0.0, SVG Export Plug-In . SVG Version: 6.00 Build 0)  -->
<!DOCTYPE svg PUBLIC "-//W3C//DTD SVG 1.1//EN" "http://www.w3.org/Graphics/SVG/1.1/DTD/svg11.dtd" [
	<!ENTITY ns_extend "http://ns.adobe.com/Extensibility/1.0/">
	<!ENTITY ns_ai "http://ns.adobe.com/AdobeIllustrator/10.0/">
	<!ENTITY ns_graphs "http://ns.adobe.com/Graphs/1.0/">
	<!ENTITY ns_vars "http://ns.adobe.com/Variables/1.0/">
	<!ENTITY ns_imrep "http://ns.adobe.com/ImageReplacement/1.0/">
	<!ENTITY ns_sfw "http://ns.adobe.com/SaveForWeb/1.0/">
	<!ENTITY ns_custom "http://ns.adobe.com/GenericCustomNamespace/1.0/">
	<!ENTITY ns_adobe_xpath "http://ns.adobe.com/XPath/1.0/">
]>
<svg version="1.1" id="Layer_1" xmlns:x="&ns_extend;" xmlns:i="&ns_ai;" xmlns:graph="&ns_graphs;"
	 xmlns="http://www.w3.org/2000/svg" xmlns:xlink="http://www.w3.org/1999/xlink" x="0px" y="0px" width="300px" height="300px"
	 viewBox="0 0 300 300" enable-background="new 0 0 300 300" xml:space="preserve">
<metadata>
	<sfw  xmlns="&ns_sfw;">
		<slices></slices>
		<sliceSourceBounds  height="226.344" width="297.902" x="2.418" y="-269.612" bottomLeftOrigin="true"></sliceSourceBounds>
	</sfw>
</metadata>
<g>
	<g>
		<path fill-rule="evenodd" clip-rule="evenodd" d="M221.263,69.622c-2.289-1.402,1.148-3.191,0.734-5.145
			c-1.289,2.596-3.376,3.761-5.145,1.47c9.042-5.844,25.363-2.561,33.81,2.205c-4.146,0.797-8.379-0.11-11.024-2.94
			c-2.93,0.5-5.001,1.859-8.82,1.47c-1.225-1.46,0.066-0.935,0-2.94C228.052,66.122,225.694,68.909,221.263,69.622z"/>
		<path fill-rule="evenodd" clip-rule="evenodd" d="M213.912,64.477c0.98,0,1.96,0,2.94,0c-1.225,1.46,0.066,0.935,0,2.94
			c-2.126,0.125-3.351,2.999-3.675-0.735c0.595,0.14,0.732,0.737,1.47,0.735C214.076,66.763,213.857,65.757,213.912,64.477z"/>
		<path fill-rule="evenodd" clip-rule="evenodd" d="M235.228,74.767c-1.663-1.522-3.552-2.818-2.94-6.615
			c3.021-1.182,9.177-1.451,9.556,2.205c-1.4-0.315-1.847-1.583-3.675-1.47C241.371,73.46,233.52,70.113,235.228,74.767z"/>
		<path fill-rule="evenodd" clip-rule="evenodd" d="M244.782,68.887c2.452-0.002,2.51,2.391,5.146,2.205
			c-1.225,1.461,0.066,0.935,0,2.94c-3.429-2.418-2.329-0.397-5.88-2.205C243.736,70.291,244.551,69.881,244.782,68.887z"/>
		<path fill-rule="evenodd" clip-rule="evenodd" d="M229.348,76.237c1.552,0.977,2.172-0.362,4.41,0.735
			c0.996,4.658-3.604,1.532-4.41,2.94C227.627,79.724,228.924,76.683,229.348,76.237z"/>
		<path fill-rule="evenodd" clip-rule="evenodd" d="M219.058,78.442c0.73,2.699,1.646,5.213,2.939,7.35
			c-4.096-1.83-1.685,0.925-2.939,2.94C217.267,85.036,218.043,81.979,219.058,78.442z"/>
		<path fill-rule="evenodd" clip-rule="evenodd" d="M181.572,85.057c-0.734,0-1.47,0-2.205,0c0.98-1.225-0.268-4.678,2.205-4.41
			C181.572,82.117,181.572,83.587,181.572,85.057z"/>
		<path fill-rule="evenodd" clip-rule="evenodd" d="M238.168,88.732c1.606,0.108,1.578,1.852,1.47,3.675
			c-1.374,0.586-2.692,1.228-4.41,1.47C234.684,90.639,237.606,90.866,238.168,88.732z"/>
		<path fill-rule="evenodd" clip-rule="evenodd" d="M181.572,89.467c-1.631,7.112-2.808,5.626-8.085,8.82
			c1.475-2.201,2.611-4.739,5.88-5.145c-1.267-2.578-3.878-0.97-5.145,1.47C172.591,90.111,177.957,90.473,181.572,89.467z"/>
		<path fill-rule="evenodd" clip-rule="evenodd" d="M228.612,90.937c1.154,0.316,0.628,2.312,2.94,1.47
			c-1.774,1.408,1.756,4.525-2.205,4.41C228.957,94.224,227.191,93.53,228.612,90.937z"/>
		<path fill-rule="evenodd" clip-rule="evenodd" d="M183.777,98.287c-1.3-0.661-2.146-1.774-3.675-2.205
			C181.095,92.907,183.977,95.932,183.777,98.287z"/>
		<path fill-rule="evenodd" clip-rule="evenodd" d="M179.367,97.552c3.462,1.61,3.844,4.566,2.205,8.085
			c-2.554,0.306-2.552-5.721-4.41-3.675C174.883,100.339,178.996,98.954,179.367,97.552z"/>
		<path fill-rule="evenodd" clip-rule="evenodd" d="M169.077,107.842c0.259-2.436,2.202-3.188,3.676-4.41
			c-0.021-0.715-0.9-0.57-1.471-0.735c1.246-1.694,1.85-4.03,5.146-3.675C172.769,100.753,174.71,108.085,169.077,107.842z"/>
		<path fill-rule="evenodd" clip-rule="evenodd" d="M175.692,107.842c-0.607,2.078,1.036,1.904,0.735,3.675
			c-3.048,0.199-2.864-0.965-5.146,0C171.74,109.28,172.915,107.759,175.692,107.842z"/>
		<path fill-rule="evenodd" clip-rule="evenodd" d="M168.343,109.312c2.133,3.143-2.463,5.845-4.41,7.35
			C163.998,112.808,166.995,111.885,168.343,109.312z"/>
		<path fill-rule="evenodd" clip-rule="evenodd" d="M160.992,118.132c-1.385-2.153,1.098-6.717,4.41-6.615
			C164.316,114.106,162.506,115.97,160.992,118.132z"/>
		<path fill-rule="evenodd" clip-rule="evenodd" d="M169.813,112.987c4.291,1.292,3.826,3.497,2.205,6.615
			c-3.127-0.437-1.422-2.911-5.146-1.47C166.329,114.894,169.252,115.121,169.813,112.987z"/>
		<path fill-rule="evenodd" clip-rule="evenodd" d="M208.032,113.722c1.878,0.082,2.573,1.347,3.675,2.205
			c-0.097,2.353-1.666,3.234-4.409,2.94C207.335,115.668,206.194,115.487,208.032,113.722z"/>
		<path fill-rule="evenodd" clip-rule="evenodd" d="M159.522,124.747c4.284,1.078,1.874,8.733-0.735,9.555
			C156.646,131.634,159.036,127.229,159.522,124.747z"/>
		<path fill-rule="evenodd" clip-rule="evenodd" d="M91.902,126.217c0.998,0.228,0.61,1.84,0.735,2.94
			c-1.318-0.094-1.55,0.899-2.94,0.735C89.35,127.584,91.676,127.95,91.902,126.217z"/>
		<path fill-rule="evenodd" clip-rule="evenodd" d="M89.697,130.627c0.735,0,1.47,0,2.205,0c0.312,1.536-0.503,1.946-0.735,2.94
			C89.875,133.39,89.492,132.302,89.697,130.627z"/>
		<path fill-rule="evenodd" clip-rule="evenodd" d="M213.178,137.242c2.258,0.135,1.542,3.958-0.735,3.675
			C212.208,139.212,212.561,138.095,213.178,137.242z"/>
		<path fill-rule="evenodd" clip-rule="evenodd" d="M210.237,140.182c-0.26,0.965-1.294,1.156-1.47,2.205
			C205.697,141.895,208.426,137.824,210.237,140.182z"/>
		<path fill-rule="evenodd" clip-rule="evenodd" d="M211.707,143.857c1.188-0.207,1.266,0.695,2.205,0.735
			c-0.431,1.529-1.544,2.375-2.205,3.675C208.994,147.677,211.098,145.241,211.707,143.857z"/>
		<path fill-rule="evenodd" clip-rule="evenodd" d="M194.067,154.882c-1.406,3.493-4.694,5.106-7.35,7.351
			c-0.56-1.156-2.332-1.099-2.205-2.94C186.69,158.008,189.762,155.912,194.067,154.882z"/>
		<path fill-rule="evenodd" clip-rule="evenodd" d="M105.132,129.892c-0.259,0.965-1.294,1.156-1.47,2.205
			c3.349-2.139,0.824-3.979,2.94-7.35c0.595,0.14,0.732,0.737,1.47,0.735c-0.205-1.51-1.963-1.467-2.94-2.205
			c-2.181,0.513-1.164,3.346-0.735,3.675c-0.572,0.996-3.322-2.019-5.145-2.205c-1.422,1.273-2.098,3.292-3.675,4.41
			c-2.716-2.528,2.432-3.406,2.205-5.88c-1.313-0.207-1.508,0.695-0.735,0.735c-1.332,0.627-2.027,1.893-3.675,2.205
			c-0.207-1.187,0.694-1.265,0.735-2.205c-3.127,0.672-5.928-1.597-7.35,2.205c-1.828-0.11-0.215-2.489,0-2.94
			c-2.025,1.16-1.901,4.468-5.145,4.41c-0.246-2.449-2.129-3.26-1.47-6.615c-1.355,1.585-2.261,3.62-3.675,5.145
			c-0.679-1.536-0.178-3.51-1.47-5.88c-0.885,0.83-1.332,2.098-3.675,1.47c-0.311,1.536,0.504,1.946,0.735,2.94
			c0.861-0.119,0.62-1.34,0.735-2.205c1.937-0.222,2.412,1.018,2.205,2.94c-1.536-0.311-1.946,0.504-2.94,0.735
			c0.311,1.537-0.504,1.946-0.735,2.94c1.293-0.177,1.676-1.265,1.47-2.94c0.855,1.35,4.796-0.386,3.675,2.94
			c1.646-2.38,1.878-2.348,2.205-5.145c2.976,0.792-0.225,3.5,0.735,6.615c-4.914-0.43-6.491,0.67-8.82,3.675
			c-1.534-2.14-4.863-2.487-6.615-4.41c-0.405,1.629,1.403,1.046,1.47,2.205c0.271,1.25-0.573,1.387-1.47,1.47
			c1.102,2.429,1.797-1.527,3.675-0.735c0.83,0.885,2.098,1.332,1.47,3.675c2.081-0.859,3.392-2.488,4.41-4.41
			c3.192,2.351,6.123-1.243,11.76-1.47c-1.422,2.636,0.283,2.693,0.735,5.145c-0.629,1.034-4.261,4.201-3.675,0
			c-1.059,0.167-0.256,2.194-1.47,2.205c1.967,2.986,0.771,5.375,0,8.82c1.187,0.207,1.266-0.694,2.205-0.735
			c-1.272-4.998-1.169-4.912,2.94-8.085c-0.27,1.25,0.573,1.387,1.47,1.47c-0.75,0.966-0.721,2.709-1.47,3.675
			c0.595-0.14,0.732-0.737,1.47-0.735c1.991-0.836-0.667-5.659,2.94-6.615c-0.152,2.112,0.186,3.734,1.47,4.41
			c1.543-0.205-1.065-1.963,0.735-2.94c-1.671,2.174-2.07-3.811,0.735-3.675c-0.35,3.254,1.011,3.655,0,5.88
			c0.965-0.259,1.156-1.294,2.205-1.47c-0.315-1.4-1.583-1.847-1.47-3.675c1.048,2.901,2.51-0.337,0.735-1.47
			c-0.882,1.03-0.286,0.063,0-0.735c1.889,0.071,1.051,2.869,2.94,2.94c0.861-0.119,0.62-1.34,0.735-2.205
			c-0.89-2.473,1.475,4.867,2.94,0.735c-4.998,6.275-17.181,11.727-25.725,16.905c-0.686-0.785-2.711-0.229-2.205-2.205
			c0.654,0.571,1.66,0.79,2.94,0.735c1.607-0.108,1.578-1.852,1.47-3.675c-1.499,0.461-0.207,3.713-2.94,2.94
			c0.393-2.843-1.312-3.588-0.735-6.615c0.853-0.617,1.97-0.969,3.675-0.735c0,1.225,0,2.45,0,3.675c2.399-0.76,1.558-1.861,3.675,0
			c-1.601-3.604-4.412-3.501-4.41-7.35c-1.078,1.194-3.132,5.628-4.41,2.205c-2.347,1.503,5.125,12.203-5.145,10.29
			c0.83-0.885,2.098-1.332,1.47-3.675c-0.994,0.722-1.469,1.961-2.205,2.94c-1.939-1.001-5.012-0.869-7.35-1.47
			c-4.346-6.795-2.056-19.485,5.88-20.58c2.167-4.889,7.351-5.015,11.025-8.085c4.302-3.595,6.498-10.399,12.495-13.23
			c17.674-27.161,41.896-47.773,74.97-59.535c1.187-0.207,1.266,0.694,2.205,0.735c8.635-8.454,21.879,0.769,30.135,0.735
			c2.308,1.858,3.361,4.969,2.94,9.555c2.304-0.508,0.958-1.96,0.734-3.675c6.348,2.802,4.76,15.554,1.471,16.17
			c-2.136-3.209-5.993-2.727-5.146,0.735c-0.14,0.834-0.737,0.408-0.735,0c-0.625-0.135-0.693,0.287-0.734,0.735
			c-1.435-0.313,1.202-2.1-2.205-1.47c-1.091,0.321,0.29,0.94,0,2.205c-0.654-0.452-1.314-0.888-1.47,0
			c-2.832-0.827,2.832-2.849,0-3.675c0.478-1.248,1.689-0.459,1.47,0.735c2.779,0.629,2.601-3.291,1.47-4.41
			c-2.063,0.009,1.75,2.005-1.47,1.47c0.021-3.163,3.064-3.306,3.675-5.88c1.293,0.177,1.676,1.265,1.47,2.94
			c-2.87-3.025-2.131,1.497-2.205,2.94c3.162-2,4.191-4.506,1.471-7.35c-0.687,0.539-1.114,1.336-1.471,2.205
			c-1.046-0.898-1.67-2.805-0.734-3.675c-0.592,0.389-1.193,0.767-2.205,0.735c1.973,2.973-1.039,1.283-2.205,2.205
			c4.338,2.115-0.647,1.666,1.47,5.88c-1.889-0.35-2.072,4.546-3.675,6.615c1.061,1.145,2.96,1.45,2.205,4.41
			c-1.043-0.063-2.081-0.122-2.205,0.735c-1.309-0.539-0.106-1.336,0-2.205c-1.952,0.253-2.48,1.929-2.94,3.675
			c2.514-3.24,0.045,1.961,1.471,4.41c2.166-0.773,2.555-3.325,3.675-5.145c1.678,0.576-2.923,5.305,0.735,5.88
			c-1.456,0.995-2.859,2.042-2.205,5.145c0.854,0.12,1.308-0.162,1.47-0.735c1.53,1.72-3.937,3.109-4.41,0.735
			c-1.748-1.476,0.817,0.325,1.47,0.735c1.279-3.729-3.189-1.71-2.939-4.41c1.303,0.167,3.681-0.741,2.939,1.47
			c2.614-2.189-1.638-3.703-4.409-2.94c-2.379-0.846,1.974-0.832,2.939-0.735c0.507-1.976-1.52-1.42-2.205-2.205
			c-0.15,1.46-1.334,2.01-1.47-1.47c0.735,0,1.47,0,2.205,0c0-0.98,0-1.96,0-2.94c-2.796-1.081-0.145,3.285-2.94,2.205
			c1.225-1.46-0.066-0.935,0-2.94c3.064,0.369,3.242-2.148,6.615-1.47c-4.934-5.145-12.385,5.58-8.82,12.495
			c-0.586,1.913-1.228-2.097-1.47-2.94c-0.596,0.14-0.732,0.738-1.47,0.735c-0.908,2.378,2.378,0.562,1.47,2.94
			c-2.304-0.344-2.072,1.848-2.94,2.94c-0.485-4.088,2.15-2.542,0-7.35c4.121-0.981,1.96-5.823,3.676-4.41
			c0.535-2.005-1.461-1.479-1.471-2.94c-0.164,1.064-2.053,2.823-2.939,5.145c-2.035,1.313,0.66-2.51,0.734-3.675
			c-1.935,0.453-0.96,1.458-2.939,2.94c-0.987-0.185,0.263-3.894-2.205-4.41c-3.403,2.081,0.535,3.419-2.94,5.88
			c2.597-0.085,1.178,1.798,2.205,1.47c0.748,1.517-3.451,4.364-5.145,5.88c-1.891,0.395,4.393-2.66,3.675-5.88
			c-1.359,0.111-0.451,2.489-1.47,2.94c-0.799-0.182-0.499-1.461-1.47-1.47c-1.661,0.411,0.891,1.146-0.735,2.205
			c-1.61,1.757,0.645-1.78-0.735-2.205c-1.054,0.906-1.393,2.527-1.47,4.41c-1.476-0.25-2.3,0.15-2.205,1.47
			c-1.771,0.301-1.598-1.342-3.675-0.735c-0.136-0.625,0.286-0.693,0.734-0.735c0-0.49,0-0.98,0-1.47
			c0.715,0.02,0.571,0.899,0.735,1.47c1.87-0.089,2.851-1.069,2.94-2.94c-2.971,3.455-4.581-0.72-4.41-3.675
			c8.53-7.15,17.914-13.445,25.725-21.315c2.509,0.826-0.231,2.849,1.471,3.675c-0.299,1.416-2.85,0.581-2.205,2.94
			c1.593-1.589,1.712-1.057,4.409-2.205c-2.733-3.893-3.063-8.246,3.676-10.29c-3.24,2.513,1.96,0.044,4.409,1.47
			c0.631-2.345-1.156-2.273-1.47-3.675c-2.246-0.531-2.679,0.751-4.41,0.735c2.628-7.415-2.069,2.665-4.409,4.41
			c-2.036,1.518-5.892,2.234-5.881,4.41c-1.059-0.166-0.256-2.193-1.47-2.205c-0.064-2.514,4.475-0.425,4.41-2.94
			c-0.202-2.579-2.738,1.844-2.94-0.735c-1.049,5.431-4.216-5.936,0.735-2.94c0.711-4.173-2.864-0.627-3.675-2.205
			c0.546,3.658-0.06,7.504-1.47,11.76c0.166,0.936,2.193,0.963,2.204,0c0.917,0.014-2.027,4.567-2.939,2.94
			c-0.119,0.854,0.162,1.308,0.735,1.47c-2.996,1.442-3.296,0.729-4.41,3.675c-3.43-1.062-0.599,0.121-2.94,1.47
			c-0.861-0.119-0.62-1.34-0.734-2.205c-1.857,1.39,0.678,2.577-0.735,4.41c-0.843-0.882-1.863-0.287-0.735,0
			c-0.081,1.799-2.43,0.156-2.205-0.735c-2.006,0.664,2.236,1.644,0,2.94c-3.391-2.171-1.608-0.146-3.675,1.47
			c-0.442-2.944-3.201-7.413-5.88-10.29c-1.689,3.547,6.799,5.9,4.41,10.29c-0.799-0.182-0.499-1.461-1.47-1.47
			c-0.134,1.604,0.602,2.338,2.204,2.205c-0.979,4.41-7.415,3.365-7.35,8.82c-5.05-1.6-1.421-3.929-2.205-8.085
			c-1.059,0.412-1.793,1.146-2.205,2.205c2.701,3.553-0.494,8.366-2.94,11.025c-0.904-0.321-1.509-0.94-1.47-2.205
			c0.049,6.452-14.079,6.938-17.64,14.7c-4.031-1.282-3.27,3.562-5.145,0.735c0.364,1.05-2.512,3.711-4.41,2.205
			c0,1.715,0,3.43,0,5.145c4.073-5.424,15.954-11.495,21.315-15.435c0.616,0.365,2.889-2.625,4.41-0.735
			c0.839-2.63,5.369-4.042,8.085-8.085c-1.408,0.708,0.074,3.432-1.47,7.35c0.119,0.862,1.34,0.62,2.205,0.735
			c-1.146-3.052,0.62-3.602-0.735-7.35c2.9-1.754,4.255-5.056,8.085-5.88c0.322,2.527-0.29,4.12-0.734,5.88
			c0.912,3.335,2.137-1.27,3.675,0.735c-2.104,0.17-6.468,8.646-10.29,11.76c-2.046-0.404,1.032-5.932-2.94-4.41
			c0.326,0.654,0.646,1.314,1.47,1.47c-0.205,1.737-1.963-0.843-2.94-0.735c0.009,1.46,2.005,0.935,1.47,2.94
			c-2.859,1.306-4.711,3.619-8.085,4.41c-1.377-1.399-0.08-1.847,0-3.675c-2.508,0.432-1.813,4.066-3.675,5.145
			c2.263,0.547,1.413-2.018,3.675-1.47c-1.159,1.781-2.629,3.25-4.41,4.41c0.441,1.328,3.77-0.57,3.675-2.205
			c1.091,0.321-0.29,0.94,0,2.205c3.011-2.271,3.416-2.657,4.41-4.41c2.603,0.082-1.562,2.43,0.735,2.205
			c-0.639,1.109-1.101-0.202-2.94,0.735c0.942,1.906,3.499,0.33,3.675,1.47c1.508,1.702-3.734-1.223-5.145,0
			c1.96,1.39,5.419,2.093,6.615,2.205c-0.026-0.089-7.406,4.91-8.085,6.615c0.12-0.854-0.163-1.308-0.735-1.47
			c0.216-1.532,1.989,1.09,2.205-1.47c-0.394-1.515-3.477-0.175-1.47-2.205c-2.228,1.376-2.064,0.579-4.41,1.47
			c0.55,1.388,2.194,0.51,0.735,2.205c1.25,0.27,1.387-0.573,1.47-1.47c0.998,0.228,0.61,1.84,0.735,2.94
			c-1.059-0.822-1.793-0.792-2.205,0.735c-0.414-1.596-0.542-1.116-4.41-1.47c0.228,0.998,1.84,0.61,2.94,0.735
			c-1.983,2.152-2.853,0.632-5.145,0c0.478,0.748,1.69,0.76,1.47,2.205c-2.622-1.308-3.733,0.313-6.615-0.735
			c-5.281,2.179-0.556,5.58-5.145,2.94c0.052,2.062-1.489,0.169-3.675,2.205c-1.996-0.669,0.749-2.576,0.735-3.675
			c-2.034,0.092-2.523,1.403-1.47-0.735c-0.735,0-1.47,0-2.205,0c1.05,3.5,1.045,3.487,2.205,6.615c0.98,0,1.96,0,2.94,0
			c2.247,1.136-3.188,0.647-4.41,0.735c0.389-0.591,0.767-1.193,0.735-2.205c-2.604,2.202-3.459,3.854-6.615,5.145
			C101.729,132.744,103.628,129.698,105.132,129.892z M196.272,68.152c0.639-1.076,1.101-2.33,2.94-2.205
			c-0.125,1.84,1.129,2.301,2.205,2.94c-0.536-2.005,1.46-1.479,1.47-2.94c-2.413,1.24-3.241-0.39-5.146-1.47
			C197.78,65.825,193.976,66.966,196.272,68.152z M180.838,68.887c-0.301,2.15-2.516,2.385-3.676,3.675
			c0.372,1.833,1.391,3.02,2.205,4.41c-0.956-2.902,2.697-1.779,0.735-3.675c2.033-0.091,2.523-1.403,1.47,0.735
			c1.84,0.125,2.301-1.129,2.94-2.205C179.934,71.64,182.191,71.764,180.838,68.887z M174.957,72.562
			c0.971,1.839-2.905,2.301-0.734,2.94c-0.707-0.002,0.481,2.963,3.675-0.735C176.398,74.551,176.456,72.778,174.957,72.562z
			 M184.513,71.092c0.436-2.345-1.38-2.273,0-3.675C181.553,66.699,181.553,71.81,184.513,71.092z M150.703,83.587
			c3.646,0.031,1.324-2.756,0-3.675C148.651,76.459,152.112,83.266,150.703,83.587z M141.147,90.202
			c-0.234,0.9,0.118,4.54,0.735,2.205c-0.402-1.068,0.859-3.799-0.735-3.675c-0.176,0.798-1.21,1.765-1.47,0.735
			c0.408,0.002,0.834-0.595,0-0.735C138.316,90.013,139.867,91.563,141.147,90.202z M149.967,96.082
			c0.604,2.797-2.454,2.765-0.735,5.145c0.216-1.499,1.989-1.441,2.205-2.94c-0.57-0.165-1.45-0.021-1.47-0.735
			C150.709,97.543,150.892,96.264,149.967,96.082z M131.592,115.192c-1.375,0.203,1.547-5.177-0.735-5.88
			c-0.155,0.888-0.815,0.452-1.47,0c-0.663,1.715-5.102,1.631-7.35,3.675c0.125,1.1-0.263,2.713,0.735,2.94c0-0.735,0-1.47,0-2.205
			c1.88-1.423,4.617,0.982,2.94-1.47c1.012,0.032,1.614-0.346,2.205-0.735c-0.509,1.296-0.812,2.276,0,2.94
			c0.356-0.869,0.784-1.667,1.47-2.205c-0.002,0.737,0.595,0.875,0.735,1.47c-1.715,0.41-1.715,2.211,0,0.735
			c-1.156,1.538-1.748,2.762-0.735,3.675C129.604,116.633,131.376,116.691,131.592,115.192z M119.833,115.927
			c-1.107,1.099-0.22,4.19-2.94,3.675c1.514-2.97-7.9,3.836-8.085-1.47c-0.458,1.993-3.071,1.83-2.94,4.41
			c1.483-1.572,6.2-1.275,8.085,0.735c-1.516-0.646-2.784,2.423-1.47,2.205c0.913-1.538,2.138-2.762,3.675-3.675
			c-4.265,4.662,5.502-0.267,1.47-1.47c1.611-0.661,4.083-4.677,5.145-1.47c-0.825,0.075-1.144-1.069-1.47,0
			c0.924,0.301,1.502,0.948,1.47,2.205c1.878-0.082,2.573-1.347,3.675-2.205C123.449,117.17,123.415,117.041,119.833,115.927z
			 M178.633,48.307c1.1-0.125,2.712,0.262,2.939-0.735c-1.019-0.291-2.082-4.172-2.939-2.205
			C180.527,45.544,177.623,46.631,178.633,48.307z M172.753,54.187c-1.59-0.616-2.508-1.903-5.146-1.47
			C167.963,55.016,171.16,56.697,172.753,54.187z M163.933,57.127c-0.57,0.165-1.45,0.02-1.47,0.735
			c2.007,2.019,2.93,1.296,4.409,2.94c0.082-1.388,2.431-0.51,2.205-2.205c-2.074,0.793-3.622-3.844-5.88-2.205
			C163.646,56.434,164.067,56.502,163.933,57.127z M138.942,69.622c0.87-0.935,2.776-0.312,3.675,0.735
			c-1.068,0.402-3.799-0.859-3.675,0.735c2.005-0.535,1.479,1.461,2.94,1.47c1.168-1.501,2.261-5.995,0-4.41
			C143.881,69.625,136.646,67.545,138.942,69.622z M139.678,71.827c-0.431,1.529-1.545,2.375-2.205,3.675
			c2.125,1.667,4.05-1.55,1.47,0C138.786,73.352,143.09,73.117,139.678,71.827z M146.292,76.237c2.824,1.12,1.403-8.217,0.735-5.88
			C147.349,72.884,146.737,74.477,146.292,76.237z M120.567,83.587c-1.049-0.286-1.24-0.882-2.205,0
			c-0.347,1.433,1.979,3.759,2.205,2.205c-1.213,0.475,2.511-5.403-0.735-2.94C120.281,82.894,120.703,82.962,120.567,83.587z
			 M131.592,82.117c-0.688,0.621-1.57,4.685,0,5.145c-0.392-1.059,2.864-1.794,0.735-2.205
			C130.582,87.59,133.903,82.247,131.592,82.117z M127.183,96.082c-3.341-0.443-0.694-7.005-2.205-5.88
			C123.392,92.253,125.284,97.864,127.183,96.082z M102.192,112.987c-1.499-0.216-1.441-1.989-2.94-2.205
			c-0.646,2.361,2.423,1.007,2.205,2.94c-2.754,1.301-1.651,6.64-5.145,8.82c4.625-0.031,2.284-7.026,7.35-6.615
			c-0.967-2.181-0.65-3.625,1.47-4.41c0.009,0.971,1.289,0.672,1.47,1.47c-1.516-0.646-2.784,2.423-1.47,2.205
			c0.517-2.467,4.225-1.217,4.41-2.205c-0.856-0.124-0.798-1.162-0.735-2.205c-1.309-0.439-3.053,2.154-3.675,0
			c0.57-0.165,1.45-0.021,1.47-0.735C104.117,110.011,103.414,111.758,102.192,112.987z M94.842,115.927
			c0.042-0.448,0.11-0.87,0.735-0.735c0.165,0.57,0.02,1.45,0.735,1.47c-0.649-2.422,3.599-3.673,1.47-5.145
			C98.161,113.905,93.23,114.739,94.842,115.927z M80.877,119.602c3.09-0.095,3.954-2.417,6.615-2.94
			C84.711,115.294,83.058,118.278,80.877,119.602z M86.757,121.807c2.345,0.436,2.273-1.379,3.675,0c0.367-2.313-1.603-2.874,0-4.41
			C87.913,117.572,88.968,121.323,86.757,121.807z M66.913,142.387c-0.449,0.042-0.87,0.11-0.735,0.735
			c1.718-0.227,3.037-1.439,4.41,0c-1.831-1.845-1.914-5.436-3.675-7.35C67.708,138.377,67.816,141.08,66.913,142.387z
			 M63.237,146.062c1.901-2.899,0.251-5.01,1.47-8.82C63.007,138.465,62.123,142.961,63.237,146.062z"/>
		<path fill-rule="evenodd" clip-rule="evenodd" d="M170.548,84.322c2.603,0.246,1.807,2.022,4.409,0.735
			c-1.325,5.079-1.02,2.865-4.409,5.88c0-1.225,0-2.45,0-3.675c0.715,0.02,0.57,0.899,0.734,1.47
			c0.596-0.14,0.733-0.737,1.471-0.735c0.093-1.318-0.9-1.55-0.735-2.94c-2.268,1.652-4.007,3.833-6.615,5.145
			C162.736,94.102,169.12,84.865,170.548,84.322z"/>
		<path fill-rule="evenodd" clip-rule="evenodd" d="M172.753,90.202c1.125,0.015-0.368,3.467-0.735,4.41
			c-0.986-0.483-1.369-1.571-1.47-2.94C171.805,91.704,172.451,91.126,172.753,90.202z"/>
		<path fill-rule="evenodd" clip-rule="evenodd" d="M210.237,68.887c-0.539-0.687-1.336-1.114-2.205-1.47
			c-1.469,4.521-1.293-1.97-2.939,1.47c-0.998-0.228-0.61-1.84-0.735-2.94c2.126,2.123,3.351-2.483,3.675,0.735
			c0.596-0.14,0.732-0.737,1.471-0.735c-1.067-2.118-4.146-2.225-5.146-4.41c2.46,0.022,4.254,3.056,9.555,2.205
			c-1.172,0.542,0.168,3.598-2.205,2.94c-0.207-1.187,0.695-1.266,0.735-2.205c-2.218-0.208-2.085,5.689-1.47,5.88
			c-0.088,1.198-3.135-0.701-2.94-2.205C208.624,68.541,209.226,68.919,210.237,68.887z"/>
		<path fill-rule="evenodd" clip-rule="evenodd" d="M230.082,66.682c0.458,1.758,0.228,3.461,0.735,6.615
			c-2.193,1.978-4.702-0.186-6.615-0.735C224.827,69.267,226.787,67.307,230.082,66.682z"/>
		<path fill-rule="evenodd" clip-rule="evenodd" d="M235.963,78.442c1.295,0.665,1.214,2.706,2.939,2.94
			c1.318,0.094,1.551-0.899,2.94-0.735c-0.623-2.154-2.366,0.439-3.675,0c0.093-1.318-0.9-1.55-0.735-2.94
			c4.72,0.203,9.964,2.318,6.615,8.085c2.408-0.286,2.282-3.107,3.675-4.41c-0.613,1.982-0.522,6.032-2.205,7.35
			c0.497-0.389-3.614-3.934-1.47,0c-2.24-0.861-5.022,0.625-3.676-2.94c-1.078,2.326-2.949,1.144-2.939-1.47
			c-1.423,1.027-4.009,0.891-3.675,3.675c-2.792,1.129-3.468-4.995-3.676,0c-1.075-0.639-2.329-1.101-2.204-2.94
			c2.42-0.474,6.061-5.208,7.35-2.205C237.045,81.821,236.524,80.32,235.963,78.442z"/>
		<path fill-rule="evenodd" clip-rule="evenodd" d="M212.442,76.237c0.747,0.478,0.76,1.69,2.205,1.47
			c-1.888,2.663-0.785,5.386,0,8.82c-0.687-0.416-1.113-2.043-1.47-0.735C211.199,82.283,214.195,79.971,212.442,76.237z"/>
		<path fill-rule="evenodd" clip-rule="evenodd" d="M256.543,79.912c1.641,3.357,2.67,10.924,0.734,20.58
			c-1.971-0.969-1.221-4.659-2.205-6.615c1.861,2.816,2.767-7.364,0-9.555C254.721,82.01,256.119,81.449,256.543,79.912z"/>
		<path fill-rule="evenodd" clip-rule="evenodd" d="M201.418,85.792c1.976-0.203,2.094,5.177,0.734,5.88
			c0.539,0.687,1.337,1.114,2.205,1.47c1.912-0.891,1.347-3.425,1.47-3.675c0.01-2.062,2.006,1.75,1.471-1.47
			c3.115,1.971-0.72,8.058-0.735,6.615c-0.861,0.119-0.62,1.34-0.735,2.205c1.435-0.229,4.399-4.063,2.94-0.735
			c3.793-2.429-0.295-5.48,2.205-9.555c0.798,0.182,0.498,1.461,1.47,1.47c-2.21,5.055-0.619,3.366,0.735,8.82
			c-1.223-2.658-2.667-0.107-2.94,2.205c0.605,0.308,3.026,0.941,1.47,2.94c-2.074,0.989-1.842-3.895-2.939-1.47
			c-1.309-0.539-0.106-1.337,0-2.205c-0.14-0.595-0.737-0.733-0.735-1.47c-2.062,0.01,1.75,2.005-1.47,1.47
			c0.571,0.654,0.79,1.66,0.735,2.94c0.854,0.12,1.308-0.162,1.47-0.735c1.736,0.205-0.843,1.963-0.735,2.94
			c-2.296-3.259-2.716-4.097-2.939-8.82c-3.109,1.554,0.032,6.509,1.47,9.555c2.006,0.066,1.479-1.224,2.94,0
			c-1.799-2.022,1.098-1.55,0.734,0.735c2.765,0.615,2.602-3.29,4.41-1.47c-0.612-2.328-2.144-3.736-3.675-5.145
			c2.071-2.26,3.477,2.361,4.41,3.675c1.46-1.224,0.935,0.066,2.939,0c-1.332-2.616,1.515,1.026,3.675-1.47
			c-0.963,3.167,3.5,0.91,2.94,3.675c0.687-0.539,1.113-1.336,1.47-2.205c4.768,1.51,5.927,4.398,11.025,4.41
			c0.687-0.539,1.113-1.336,1.47-2.205c-1.25-0.27-1.387,0.573-1.47,1.47c-2.604-0.082,1.562-2.43-0.735-2.205
			c-0.641-1.543,3.74,1.065,1.471-0.735c1.627-1.607,0.648,1.393,1.47,2.205c1.537-0.913,2.763-2.137,3.675-3.675
			c-0.65-2.014-3.261,1.435-1.47-1.47c-2.217,0.968-6.297,0.074-8.085,1.47c-2.091-0.98,0.566-3.269,0.734-4.41
			c3.769-0.073,7.66,3.583,9.556,2.94c1.544,3.973-5.429,4.615-5.88,7.35c-4.734,0.324-7.626-1.194-9.556-3.675
			c-2.109,3.28,0.611,11.391-1.47,14.7c-3.381-0.928-1.588-4.182-1.47-7.35c-1.044-0.063-2.082-0.122-2.205,0.735
			c1.636-0.632,2.483,3.563-1.471,2.94c1.803-0.979-1.324-2.218,0.735-2.94c-0.182-0.798-1.461-0.499-1.47-1.47
			c-0.546,0.071-0.546,2.869,0,2.94c-0.722,1.188-1.961,1.692-2.94,0.735c2.205-0.957,1.339-3.145,0-4.41
			c-1.492-0.225,0.15,2.124,0.735,2.205c-2.854,2.326-2.703-4.619-5.88-4.41c2.38,3.048,1.534,3.766,3.675,5.88
			c-0.217,1.532-1.989-1.09-2.205,1.47c0.853-0.587-0.962-5.455-2.205-5.145c-1.068-0.326,0.075-0.646,0-1.47
			c-2.144-1.081-2.144,3.286,0,2.205c-1.832,1.354-5.572,0.797-6.615,2.94c3.111,0.081,0.013,1.377-0.734,0
			c0.32-0.904,0.94-1.509,2.205-1.47c-0.669-2.011-2.576,1.304-3.676-0.735c-0.063,1.043-0.121,2.081,0.735,2.205
			c0.225,2.297-2.123-1.868-2.205,0.735c-0.383-0.195,1.037-4.801,1.47-6.615c-3.607-0.668-2.799,3.081-5.88,2.94
			c2.114-2.009,5.844-5.637,8.085-5.145C202.495,96.475,201.962,93.26,201.418,85.792z"/>
		<path fill-rule="evenodd" clip-rule="evenodd" d="M227.143,118.867c0.181,5.081-2.342,7.458-4.41,10.29
			c-1.114,0.542,3.288-5.311,3.675-8.085c0.125-1.839-1.129-2.301-2.205-2.94C224.924,115.878,226.163,118.977,227.143,118.867z"/>
		<path fill-rule="evenodd" clip-rule="evenodd" d="M251.397,98.287c1.53-1.818-5.091-1.737-7.35-2.205
			c3.146-1.916,6.013-4.558,3.675-8.085c2.915,1.98,2.307,4.2,6.615,3.675c0.413,2.863-2.324,2.576-2.94,4.41
			c0.664,1.296,1.645,2.276,2.94,2.94c-1.007,1.16-3.481-0.601-5.881,1.47c-2.561-0.216,0.063-1.989-1.47-2.205
			c-1.992,0.665,0.619,2.706,1.47,2.94c-1.638,1.827-4.189-1.648-4.409-3.675C246.281,98.013,250.379,96.611,251.397,98.287z"/>
		<path fill-rule="evenodd" clip-rule="evenodd" d="M220.527,95.347c0.925,0.182,0.741,1.461,0,1.47
			c1.374,1.076,3.492,1.408,2.94,4.41C222.186,99.674,218.793,97.618,220.527,95.347z"/>
		<path fill-rule="evenodd" clip-rule="evenodd" d="M217.588,93.142c-0.822,1.059-0.793,1.793,0.734,2.205
			c-2.169-0.701-1.332,3.871-2.939,0.735c-0.998,0.228-0.61,1.84-0.735,2.94c6.66-0.831-3.216,3.206-0.735-5.145
			c1.024-2.366,0.32,3.561,2.205,0.735c0.207-1.187-0.694-1.265-0.734-2.205C216.167,89.905,215.611,94.452,217.588,93.142z"/>
		<path fill-rule="evenodd" clip-rule="evenodd" d="M192.598,91.672c1.71,1.103,1.121,1.797,0.734,3.675
			c-1.721-2.255-0.713-0.571-2.204,0.735C190.006,98.108,191.473,92.079,192.598,91.672z"/>
		<path fill-rule="evenodd" clip-rule="evenodd" d="M167.607,101.227c1.772-1.412,2.918-3.452,4.41-5.145
			c1.542,2.311-1.77,6.046-4.41,6.615c-0.66-2.151-0.66-2.258,0-4.41c-0.625-0.135-0.693,0.287-0.735,0.735
			c-1.99-1.516,1.681-0.643,1.471-1.47C170.178,98.06,166.979,99.513,167.607,101.227z"/>
		<path fill-rule="evenodd" clip-rule="evenodd" d="M163.933,106.372c1.091,0.321-0.29,0.94,0,2.205
			c2.444-1.23,1.972-5.378,5.88-5.145c-0.187,3.243-2.987,3.873-3.675,6.615c-1.059-1.626-1.794,0.925-2.205-0.735
			c-1.362,1.333-1.827,3.563-3.675,4.41C159.598,111.107,162.779,108.16,163.933,106.372z"/>
		<path fill-rule="evenodd" clip-rule="evenodd" d="M177.162,102.697c-0.049,1.222,1.658,1.974,2.205,4.41
			c-1.796,1.808-3.187-0.543-5.88,0C173.194,104.119,176.615,104.845,177.162,102.697z"/>
		<path fill-rule="evenodd" clip-rule="evenodd" d="M200.683,104.167c-1.456-0.933-2.859,0.44-2.205-3.675
			c0.861,0.119,0.62,1.34,0.735,2.205c0.861-0.119,0.619-1.34,0.734-2.205c3.201,3.407-0.348,6.558-2.205,7.35
			C196.005,109.11,199.516,104.705,200.683,104.167z"/>
		<path fill-rule="evenodd" clip-rule="evenodd" d="M152.173,104.167c1.606,0.108,1.578,1.852,1.47,3.675
			c-1.666,0.723-2.671-0.252-2.94,2.94c-1.35-1.1-1.833-3.068-3.675-3.675c0.417-0.686,2.043-1.113,0.735-1.47
			c-0.363-0.964,3.647-0.323,2.94,1.47C152.062,106.997,151.153,104.618,152.173,104.167z"/>
		<path fill-rule="evenodd" clip-rule="evenodd" d="M186.718,105.637c1.341,0.571-0.44,0.79-1.471,0.735
			c0.021,0.715,0.9,0.57,1.471,0.735c-1.615,3.041-3.447,5.863-5.88,8.085c1.829,1.342,1.746-0.518,2.205,1.47
			c-0.178,1.895-1.265-1.009-2.94,0c0.756,2.841,1.937,2.899,0.735,5.145c2.016-0.388,3.072-2.837,3.675,0
			c2.201-0.484-0.703-1.571,0-2.94c0.654,0.571,1.659,0.79,2.939,0.735c-0.173-2.031-4.146-0.263-3.675-2.94
			c1.84,1.064,2.887,1.78,5.146,0.735c-2.236-1.281,2.006-2.831,0-1.47c0.182,0.798,1.461,0.499,1.47,1.47
			c2.299-3.745,5.449-0.806,4.41-7.35c-1.043-0.063-2.082-0.121-2.205,0.735c-0.408-3.128,3.24-0.956,5.88,0
			c0.191,2.151-1.662,2.258-1.47,4.41c-4.872-0.175-1.821,2.456-2.205,4.41c-0.625,0.135-0.693-0.287-0.735-0.735
			c-0.794,10.327-26.139,2.21-27.93,13.965c-5.521,0.604-6.028,6.222-8.82,9.555c-0.753-3.056,0.68-0.647-0.735-5.88
			c-0.625-0.135-0.693,0.287-0.734,0.735c-2.417-1.09,2.181-1.144,2.205-2.205c2.141,1.031-1.304,2.532-0.735,4.41
			c1.813-0.434,4.178-4.095,2.94-5.145c0.851-0.322,2.929-0.702,2.939-3.675c3.299,0.604,3.282-2.108,5.146-2.94
			c-0.021-0.715-0.9-0.57-1.471-0.735c0.835-2.402,2.459,0.182,2.94-2.94c0.654,0.326,1.314,0.645,1.47,1.47
			c1.607-0.108,1.578-1.852,1.471-3.675c0.653,0.326,1.314,0.646,1.47,1.47c3.038-3.467,0.999-3.431,5.88-3.675
			c-0.722-2.06-1.961,1.067-2.94-0.735c0.417-0.687,2.044-1.114,0.735-1.47c1.51,0.194,0.623-1.673,2.94-2.205
			c0.207-1.187-0.695-1.265-0.735-2.205c0.703-0.936,1.501,1.805,2.205-1.47c-0.411-1.661-1.146,0.891-2.205-0.735
			C184.604,110.043,183.415,108.328,186.718,105.637z"/>
		<path fill-rule="evenodd" clip-rule="evenodd" d="M158.053,115.927c1.875-1.998,1.856,4.014-0.735,3.675
			c0.776,1.183,2.913-1.197,1.47,2.205c2.148-0.547,1.423-3.968,4.41-3.675c0.852,1.088,0.852,1.853,0,2.94
			c1.461-0.009,0.935-2.005,2.94-1.47c0.325,0.654,0.646,1.314,1.47,1.47c1.19,5.533-7.574,5.169-5.145,0.735
			c-4.624,2.237-5.797,7.923-7.351,13.23c-3.857-1.697,1.651-8.464-2.939-8.82c0.011-2.684,2.089-3.301,2.939-5.145
			c2.254,0.722-0.845,1.961-0.734,2.94C157.269,124.97,157.297,117.272,158.053,115.927z M158.053,122.542
			c-0.945,0.829-3.58,3.692-2.205,4.41C155.947,125.279,160.271,124.104,158.053,122.542z"/>
		<path fill-rule="evenodd" clip-rule="evenodd" d="M146.292,118.867c-1.627,2.401,1.289-0.182,1.47,2.94
			c1.091-0.321-0.29-0.94,0-2.205c1.293,0.177,1.675,1.265,1.47,2.94c-1.87,0.8-2.85-3.442-2.94,0c-0.654-0.452-1.314-0.888-1.47,0
			c-0.834-0.14-0.408-0.737,0-0.735c0.094-1.318-0.899-1.55-0.735-2.94c-0.099,2.661-2.252,2.474-0.735-0.735
			C144.006,118.703,145.012,118.922,146.292,118.867z"/>
		<path fill-rule="evenodd" clip-rule="evenodd" d="M147.027,126.217c-2.746,0.786-2.095-1.825-4.41-1.47
			c2.307-1.646,2.204,1.484,5.88,0c0.135-0.625-0.287-0.693-0.735-0.735c0.119-0.861,1.34-0.62,2.205-0.735
			C149.303,124.573,148.323,125.553,147.027,126.217z"/>
		<path fill-rule="evenodd" clip-rule="evenodd" d="M150.703,124.012c1.047,1.875-0.541,5.018,2.205,5.145
			c0.203,3.927-3.142-0.253-2.94,3.675c0.639,2.171,1.1-1.706,2.94-0.735c-1.577,2.097,0.49,7.84-3.675,7.35c0-1.715,0-3.43,0-5.145
			c-3.898,2.016,0.009,9.898-6.615,11.76c0.085,2.09,5.114-0.567,2.94-0.735c0.14-0.834,0.737-0.408,0.735,0
			c0.625,0.135,0.693-0.287,0.735-0.735c-0.328,3.397-6.316,2.948-7.35,8.085c-1.152-0.26,0.643-1.294-0.735-1.47
			c3.993-2.054,2.354-5.377,4.41-8.82c-2.3,2.979-7.474,7.924-5.145,11.025c-0.665,1.295-2.706,1.214-2.94,2.939
			c-1.986-1.1,1.273-3.067,2.205-3.675c-1.903-0.945-1.414-2.416-0.735-4.41c-2.21,1.22-1.396,5.463-4.41,5.88
			c-0.113,2.697,3.764,2.816,0.735,4.409c-1.543-0.205,1.065-1.963-0.735-2.939c-2.354,1.954-2.1,3.67-3.675,5.145
			c0.14,0.835,0.737,0.408,0.735,0c1.309,0.539,0.106,1.337,0,2.205c-0.49,0-0.98,0-1.47,0c2.45-12.494,11.829-18.062,18.375-26.46
			c-0.993,0.722-1.469,1.961-2.205,2.94c-0.644-3.111,5.124-6.133,5.88-10.29c-1.686-1.899-3.332,1.904-5.88-0.735
			c-1.359,0.111-0.451,2.489-1.47,2.94c-3.668-1-3.68,2.417-10.29,0.735c3.521-2.188,0.104-1.269-0.735-3.675
			c-0.692-1.587,2.19,1.703,3.675-0.735c0.093,1.318-0.9,1.55-0.735,2.94c2.874-3.932,10.509-1.78,16.17-3.675
			C149.037,125.82,149.037,125.144,150.703,124.012z"/>
		<path fill-rule="evenodd" clip-rule="evenodd" d="M88.228,125.482c4.012,0.636-3.248,6.923,0.735,7.35
			c-0.242,1.718-0.883,3.037-1.47,4.41C84.94,132.513,87.434,130.002,88.228,125.482z"/>
		<path fill-rule="evenodd" clip-rule="evenodd" d="M116.893,128.422c0.508,0.983,1.96-0.363,3.675,0.735c0,1.225,0,2.45,0,3.675
			c-0.715-0.02-0.57-0.9-0.735-1.47c-0.965,0.882-1.156,0.287-2.205,0c0.26-0.965,1.294-1.156,1.47-2.205
			c-1.829-0.114-2.275,1.154-3.675,1.47c-1.769-0.442,2.188-1.137,0.735-3.675C117,127.211,118.021,128.246,116.893,128.422z"/>
		<path fill-rule="evenodd" clip-rule="evenodd" d="M124.978,127.687c2.152,0.661,2.258,0.661,4.41,0
			c-1.096-0.157-0.959,4.072,1.47,2.94c1.091,0.321-0.29,0.94,0,2.205c-2.347-2.365-4.171,0.786-7.35-2.205
			C123.517,129.167,125.513,129.692,124.978,127.687z"/>
		<path fill-rule="evenodd" clip-rule="evenodd" d="M202.152,136.507c0.275,2.907,3.908-1.138,3.675,2.94
			c1.695,0.225,0.816-2.123,2.205-2.205c1.166-1.502-1.186,4.812-4.41,3.675c0.507-1.977-1.519-1.42-2.204-2.205
			c1.105-3.549,2.412-6.897,2.939-11.025c2.25,1.826-0.88,4.461,0,7.35c2.643-1.767,3.063-5.757,6.615-6.615
			c-0.83,0.885-2.098,1.332-1.47,3.675c-1.499-1.477-1.441,0.325-2.94,0.735c1.749,0.501,2.271,4.078-0.735,3.675
			c0.571-0.654,0.791-1.66,0.735-2.94C205.083,136.163,204.159,134.745,202.152,136.507z"/>
		<path fill-rule="evenodd" clip-rule="evenodd" d="M219.058,136.507c1.376-0.704-2.154,5.418-2.94,7.35
			C213.548,140.76,217.194,137.612,219.058,136.507z"/>
		<path fill-rule="evenodd" clip-rule="evenodd" d="M197.742,137.242c1.502,2.578-5.185,1.526-2.205,4.41
			c1.848,1.377-1.222,0.081-2.205,0c1.78-1.466,0.739-1.16,1.471-3.675C196.643,138.069,197.104,139.38,197.742,137.242z"/>
		<path fill-rule="evenodd" clip-rule="evenodd" d="M154.378,137.977c1.123,1.651-3.711,3.611-4.411,5.88
			C144.878,143.354,153.333,142.019,154.378,137.977z"/>
		<path fill-rule="evenodd" clip-rule="evenodd" d="M203.622,146.062c0.235,1.705-0.118,2.822-0.734,3.675
			c0.625,0.135,0.693-0.287,0.734-0.735c-0.768,4.558-3.626-5.897-5.145-3.675c-1.759-1.102,1.164-3.678,2.94-3.675
			c-0.141-0.595-0.738-0.732-0.735-1.47c-0.752,0.718-1.487,1.453-2.205,2.205c-0.625,0.135-0.693-0.287-0.735-0.735
			c0.136-0.625-0.286-0.693-0.734-0.735c0.461-1.499,3.713-0.207,2.939-2.94C203.798,139.573,199.335,145.898,203.622,146.062z"/>
		<path fill-rule="evenodd" clip-rule="evenodd" d="M205.827,149.737c0.515,2.262,0.515,1.413,0,3.675
			c1.67-0.536,2.198-2.212,2.94-3.675c0.639,3.084-5.657,9.218-7.35,8.085c0.382,1.087,1.087,1.853,1.47,2.939
			c0.965-0.26,1.156-1.294,2.205-1.47c1.034-1.25-2.403,4.648-5.146,4.41c1.156-0.56,1.099-2.332,2.94-2.205
			c-0.835-0.705-2.458-4.309-2.94-2.94c0.008-2.459,3.756-7.502,5.88-10.29c-1.441-0.07-1.323-2.201-2.939-5.145
			c0.654-0.326,1.314-0.646,1.47-1.47c0.308,0.906,0.941,2.034,2.94,2.94c0.021-1.988,1.634-0.024,2.939-2.94
			c0.739,0.315,0.03,5.372-2.939,4.41C208.061,146.757,207.969,149.849,205.827,149.737z"/>
		<path fill-rule="evenodd" clip-rule="evenodd" d="M191.128,144.592c2.271,1.88,3.943-1.985,5.145-1.47
			c1.982,2.27-2.469,4.359-3.675,5.88c-2.304-0.508-0.958-1.96-0.735-3.675c-1.694-0.225-0.816,2.123-2.205,2.205
			C188.102,149.324,190.522,145.226,191.128,144.592z"/>
		<path fill-rule="evenodd" clip-rule="evenodd" d="M189.657,150.472c-0.362-0.964,3.647-0.323,2.94,1.47
			c1.389-0.551,0.51-2.194,2.205-0.735c0.374-0.934,1.395-4.076,4.41-4.41c0.822,4.695-2.131,7.315-4.41,9.555
			c-0.017-1.731,1.266-2.164,0.734-4.409c-0.997,0.227-0.609,1.84-0.734,2.939c-1.527-0.411-1.558-1.146-0.735-2.205
			c-2.361-0.452-1.007,2.646-2.939,0.735c-2.671,2.188-3.962,4.627-7.351,4.41c0.69-2.981,3.169-5.582,5.88-4.41
			C190.85,153.938,190.85,149.946,189.657,150.472z"/>
		<path fill-rule="evenodd" clip-rule="evenodd" d="M197.742,161.497c-1.842,0.127-1.784-1.646-2.939-2.205
			c-1.337,0.851-0.664,3.716-3.675,3.675c1.133,1.79,5.077,0.236,5.88-0.734c-0.354,3.983-11.766,2.225-12.495,2.939
			c0.118,0.861,1.34,0.62,2.205,0.735c2.378,0.846-1.974,0.832-2.94,0.734c-0.967-3.192-0.65-2.217,1.47-2.939
			c0.218-1.933-2.852-0.579-2.204-2.94c1.707,0.498,1.967,2.442,3.675,2.94c5.322-4.528,11.612-5.481,13.965-13.965
			c0.625-0.135,0.693,0.287,0.735,0.735c-0.136,0.625,0.286,0.693,0.734,0.735C200.91,153.552,197.779,156.027,197.742,161.497z"/>
		<path fill-rule="evenodd" clip-rule="evenodd" d="M213.912,147.532c3.728-0.668-7.716,10.658-8.085,10.29
			c-0.692-0.693,18.229-18.229,2.94-2.94c1.044-1.044,1.567-2.663,2.939-2.939C211.719,149.749,213.618,149.443,213.912,147.532z"/>
		<path fill-rule="evenodd" clip-rule="evenodd" d="M255.072,80.647c-2.489,0.451-5.676,0.204-5.145,3.675
			c-1.826-2.835,0.356-7.951,1.47-10.29C254.542,74.317,254.898,77.391,255.072,80.647z"/>
		<path fill-rule="evenodd" clip-rule="evenodd" d="M224.938,77.707c0.69-3.513,2.378,0.297,2.94,2.94
			c-0.478,0.748-1.69,0.76-1.471,2.205c-1.319-1.996-9.06-7.74-2.205-8.82C223.266,75.969,224.971,75.586,224.938,77.707z"/>
	</g>
</g>
<g>
	<path d="M18.655,159.962v39.241c0,1.453,0.049,2.668,0.15,3.645c0.1,0.979,0.275,1.668,0.526,2.068
		c0.25,0.351,0.613,0.613,1.09,0.789c0.476,0.176,1.165,0.289,2.067,0.338l3.608,0.15v2.256c-1.955-0.051-3.822-0.102-5.601-0.15
		c-1.779-0.051-3.546-0.076-5.3-0.076c-0.501,0-1.015,0-1.541,0s-1.065,0-1.616,0c-1.304,0.05-2.606,0.088-3.909,0.113
		c-1.304,0.024-2.657,0.063-4.06,0.113v-2.256l3.608-0.226c0.902,0,1.603-0.087,2.105-0.263c0.5-0.176,0.852-0.438,1.052-0.789
		c0.25-0.4,0.425-1.09,0.526-2.068c0.1-0.977,0.15-2.166,0.15-3.57v-33.828c0-1.402-0.05-2.58-0.15-3.533
		c-0.101-0.951-0.276-1.627-0.526-2.029c-0.201-0.4-0.552-0.676-1.052-0.826c-0.502-0.15-1.203-0.25-2.105-0.301l-3.082-0.301
		v-2.256c0.65,0.051,1.327,0.088,2.029,0.113c0.702,0.025,1.403,0.037,2.105,0.037c1.353,0.051,2.769,0.088,4.248,0.113
		c1.478,0.025,2.943,0.037,4.397,0.037c1.503,0,2.981-0.012,4.435-0.037c1.453-0.025,2.906-0.063,4.36-0.113
		c0.701,0,1.428-0.012,2.18-0.037c0.752-0.025,1.478-0.037,2.18-0.037c0.1,0,0.212,0,0.338,0c0.125,0,0.237,0,0.338,0
		c5.212,0,8.845,1.014,10.9,3.044c2.054,2.03,3.232,4.272,3.533,6.728c0,0.252,0.012,0.502,0.038,0.752
		c0.024,0.252,0.037,0.502,0.037,0.752c0,4.059-1.503,7.305-4.51,9.734c-3.007,2.432-6.314,3.998-9.923,4.699
		c-0.05,0.05-0.088,0.074-0.113,0.074c-0.025,0-0.063,0-0.112,0l17.064,22.176c0.551,0.803,1.227,1.316,2.029,1.541
		c0.801,0.227,1.653,0.39,2.556,0.489v2.181c-0.301,0-0.614-0.014-0.939-0.038c-0.326-0.026-0.639-0.038-0.939-0.038
		c-0.602-0.051-1.191-0.088-1.767-0.112c-0.577-0.026-1.165-0.038-1.767-0.038c-0.451,0-0.891,0.012-1.315,0.038
		c-0.427,0.024-0.84,0.038-1.24,0.038c-0.15,0-0.289,0.012-0.414,0.037c-0.125,0.024-0.263,0.037-0.413,0.037
		c-0.301,0-0.59,0.012-0.865,0.038c-0.276,0.024-0.563,0.038-0.864,0.038c-0.251-0.301-0.501-0.627-0.752-0.979
		c-0.251-0.35-0.501-0.676-0.751-0.977c-0.101-0.15-0.201-0.275-0.301-0.376c-0.101-0.1-0.176-0.2-0.226-0.301
		c-0.201-0.25-0.389-0.488-0.564-0.714c-0.176-0.226-0.338-0.438-0.488-0.639l-13.832-18.643c-0.351-0.451-0.727-0.902-1.127-1.354
		c-0.402-0.451-0.802-0.902-1.203-1.354c-0.251-0.35-0.514-0.676-0.789-0.977c-0.276-0.301-0.539-0.602-0.79-0.902l0.451-0.978
		c0.35,0.101,0.701,0.15,1.053,0.15c0.35,0,0.701,0,1.052,0c0.5,0,1.002-0.012,1.503-0.038c0.5-0.024,1.002-0.062,1.503-0.112
		c0.25-0.05,0.5-0.087,0.752-0.112c0.25-0.025,0.5-0.063,0.751-0.113c2.656-0.451,4.949-1.628,6.878-3.533
		c1.929-1.904,2.894-4.234,2.894-6.99c0-3.959-1.191-6.665-3.571-8.119c-2.381-1.453-4.999-2.205-7.855-2.256
		c-0.101,0-0.188,0-0.263,0s-0.139,0-0.188,0c-1.704,0-3.146,0.088-4.322,0.264c-1.178,0.176-2.293,0.389-3.345,0.639V159.962z"/>
	<path d="M72.028,172.967c4.108,0.051,7.518,1.305,10.224,3.759c2.706,2.456,4.06,5.814,4.06,10.073c0,0.502,0,1.015,0,1.541
		s-0.051,1.065-0.15,1.616c-1.104,0.2-2.23,0.364-3.383,0.489c-1.153,0.125-2.281,0.238-3.383,0.338
		c-1.153,0.051-2.293,0.102-3.421,0.15c-1.127,0.051-2.268,0.075-3.42,0.075H61.579c0,4.438,1.115,8.015,3.346,10.733
		c2.229,2.718,5.649,4.075,10.261,4.075c1.754,0,3.346-0.35,4.773-1.052c1.429-0.701,2.819-1.453,4.172-2.256
		c0.101-0.049,0.176-0.087,0.226-0.112c0.05-0.024,0.101-0.063,0.15-0.112l0.978,0.676l-1.504,2.557
		c-0.101,0.25-0.45,0.551-1.052,0.901s-1.329,0.752-2.181,1.202c-0.853,0.352-1.792,0.689-2.818,1.016
		c-1.028,0.325-2.067,0.588-3.12,0.789c-0.501,0.1-0.99,0.176-1.466,0.226c-0.477,0.05-0.939,0.075-1.391,0.075
		c-5.664,0-9.974-1.616-12.93-4.849c-2.958-3.232-4.436-7.379-4.436-12.44c0-3.658,0.477-6.627,1.429-8.908
		c0.951-2.28,2.28-4.098,3.984-5.451c0.701-0.551,1.453-1.102,2.255-1.653c0.801-0.551,1.604-1.002,2.405-1.353
		c0.701-0.351,1.391-0.65,2.067-0.902c0.677-0.25,1.341-0.476,1.992-0.677c0.551-0.15,1.09-0.263,1.616-0.339
		c0.526-0.074,1.09-0.112,1.691-0.112V172.967z M71.652,175.447c-2.757,0.051-5.111,1.053-7.066,3.008
		c-1.954,1.954-2.906,4.836-2.856,8.645c0,0.15,0,0.301,0,0.451s0,0.301,0,0.451c1.654,0.201,3.308,0.326,4.962,0.375
		c1.653,0.051,3.257,0.076,4.811,0.076c1.453,0,2.856-0.025,4.21-0.076c1.354-0.049,2.655-0.1,3.909-0.15
		c0-3.507-0.652-6.502-1.955-8.982c-1.304-2.48-3.308-3.721-6.014-3.721V175.447z"/>
	<path d="M118.183,203.262l-7.818,4.961c-0.401,0.301-0.89,0.514-1.466,0.64c-0.576,0.124-1.141,0.212-1.691,0.263
		c-0.101,0-0.2,0-0.301,0s-0.2,0-0.3,0c-0.051,0-0.113,0-0.188,0s-0.163,0-0.263,0c-5.213-0.302-8.921-1.908-11.126-4.821
		c-2.206-2.913-3.434-6.103-3.684-9.567c-0.051-0.251-0.075-0.514-0.075-0.791c0-0.276,0-0.565,0-0.866
		c0-3.817,0.701-6.905,2.105-9.267c1.402-2.36,3.131-4.193,5.187-5.499l6.314-4.144c0.551-0.25,1.303-0.5,2.255-0.752
		c0.952-0.25,1.929-0.4,2.932-0.451c0.101,0,0.188,0,0.264,0s0.138,0,0.188,0c1.854,0,3.671,0.214,5.45,0.639
		c1.778,0.427,3.496,1.041,5.149,1.842l3.684-2.405l1.429,0.827c-0.402,0.809-0.715,1.703-0.94,2.688s-0.389,1.981-0.488,2.992
		c-0.101,0.857-0.176,1.703-0.226,2.535c-0.051,0.834-0.075,1.604-0.075,2.31v37.06c0,1.002,0.024,1.88,0.075,2.631
		c0.05,0.752,0.15,1.328,0.301,1.729c0.15,0.351,0.425,0.602,0.827,0.752c0.4,0.15,0.927,0.25,1.578,0.301l3.458,0.226v2.255
		c-0.451,0-0.915-0.013-1.391-0.038c-0.477-0.025-0.966-0.037-1.466-0.037c-0.952-0.051-1.968-0.088-3.045-0.113
		c-1.078-0.025-2.243-0.037-3.495-0.037c-0.952,0-1.879,0.012-2.781,0.037s-1.805,0.038-2.706,0.038
		c-0.201,0-0.414,0.012-0.64,0.038c-0.226,0.024-0.464,0.037-0.714,0.037c-0.552,0-1.116,0.012-1.691,0.037
		c-0.576,0.025-1.165,0.038-1.767,0.038v-2.255l4.36-0.226c0.65-0.051,1.177-0.15,1.578-0.301c0.4-0.15,0.677-0.401,0.827-0.752
		c0.15-0.401,0.25-0.978,0.301-1.729c0.05-0.751,0.075-1.629,0.075-2.631V203.262z M118.183,199.188v-19.672
		c-1.003-0.904-2.131-1.582-3.383-2.035c-1.253-0.451-2.507-0.729-3.759-0.83c-0.401-0.049-0.802-0.087-1.202-0.113
		c-0.402-0.023-0.803-0.037-1.203-0.037c-0.401,0-0.815,0.025-1.24,0.075c-0.427,0.051-0.84,0.126-1.24,0.228
		c-2.105,0.502-4.022,1.721-5.751,3.654c-1.729,1.936-2.594,4.861-2.594,8.781c0,0.252,0,0.516,0,0.792s0.024,0.539,0.075,0.79
		c0.15,3.518,1.09,6.747,2.819,9.686c1.729,2.94,4.647,4.41,8.758,4.41c0.25,0,0.525-0.012,0.826-0.038
		c0.301-0.024,0.576-0.088,0.827-0.188c1.053-0.251,2.079-0.666,3.082-1.243c1.002-0.578,1.829-1.193,2.48-1.847
		c0.451-0.401,0.814-0.816,1.091-1.244c0.274-0.428,0.413-0.791,0.413-1.094V199.188z"/>
	<path d="M168.549,200.545c0,1.055,0.025,1.959,0.074,2.713c0.051,0.754,0.15,1.331,0.301,1.732c0.15,0.352,0.426,0.602,0.828,0.752
		c0.4,0.15,0.926,0.252,1.578,0.301l3.082,0.15v2.256c-0.301,0-0.613-0.014-0.939-0.038c-0.326-0.026-0.664-0.038-1.016-0.038
		c-0.5-0.051-0.99-0.088-1.465-0.112c-0.477-0.026-0.965-0.038-1.467-0.038c-0.201,0-0.412,0-0.639,0c-0.225,0-0.439,0-0.639,0
		c-0.703,0-1.416,0.012-2.143,0.038c-0.727,0.024-1.441,0.062-2.143,0.112c-0.352,0-0.689,0.012-1.014,0.038
		c-0.328,0.024-0.666,0.038-1.016,0.038c0-0.102,0-0.188,0-0.264s0.025-0.162,0.074-0.264c0.051-0.951,0.102-1.928,0.15-2.932
		c0.051-1.002,0.076-2.129,0.076-3.383l-5.037,4.586c-1.053,1.004-2.268,1.742-3.645,2.218c-1.381,0.476-2.97,0.714-4.775,0.714
		c-4.811,0-7.769-1.152-8.87-3.457c-1.103-2.305-1.68-4.861-1.729-7.668c0-0.25,0-0.514,0-0.789s0-0.564,0-0.865v-12.704
		c0-1.152-0.038-2.13-0.113-2.932s-0.214-1.353-0.413-1.653c-0.201-0.301-0.515-0.514-0.939-0.64
		c-0.427-0.124-1.041-0.188-1.842-0.188h-2.781v-2.254c0.1,0.05,0.199,0.063,0.3,0.037s0.176-0.037,0.226-0.037
		c1.754-0.2,3.445-0.514,5.074-0.94c1.628-0.425,3.094-0.89,4.398-1.391c0.3-0.1,0.601-0.212,0.901-0.339
		c0.301-0.124,0.576-0.236,0.827-0.338l0.677,0.226v22.229c0,3.014,0.5,5.299,1.503,6.857c1.002,1.557,3.232,2.336,6.691,2.336
		c1.904,0,3.684-0.639,5.338-1.918c1.652-1.277,2.855-2.668,3.607-4.172c0.199-0.451,0.35-0.889,0.451-1.314
		c0.1-0.426,0.15-0.84,0.15-1.241v-12.328c0-1.152-0.037-2.13-0.113-2.932c-0.074-0.802-0.213-1.353-0.412-1.653
		c-0.201-0.301-0.516-0.514-0.941-0.64c-0.426-0.124-1.039-0.188-1.842-0.188h-2.781v-2.254c0.1,0.05,0.201,0.063,0.301,0.037
		s0.176-0.037,0.227-0.037c1.754-0.2,3.445-0.514,5.074-0.94c1.627-0.425,3.094-0.89,4.396-1.391c0.301-0.1,0.602-0.212,0.902-0.339
		c0.301-0.124,0.576-0.236,0.828-0.338l0.676,0.226V200.545z"/>
	<path d="M195.461,172.967c4.107,0.051,7.518,1.305,10.223,3.759c2.707,2.456,4.061,5.814,4.061,10.073c0,0.502,0,1.015,0,1.541
		s-0.051,1.065-0.15,1.616c-1.104,0.2-2.23,0.364-3.383,0.489c-1.154,0.125-2.281,0.238-3.383,0.338
		c-1.154,0.051-2.293,0.102-3.422,0.15c-1.127,0.051-2.268,0.075-3.42,0.075h-10.975c0,4.438,1.115,8.015,3.346,10.733
		c2.229,2.718,5.648,4.075,10.26,4.075c1.754,0,3.346-0.35,4.773-1.052c1.43-0.701,2.82-1.453,4.172-2.256
		c0.102-0.049,0.176-0.087,0.227-0.112c0.049-0.024,0.1-0.063,0.15-0.112l0.977,0.676l-1.504,2.557
		c-0.1,0.25-0.449,0.551-1.051,0.901s-1.33,0.752-2.182,1.202c-0.852,0.352-1.791,0.689-2.818,1.016
		c-1.027,0.325-2.066,0.588-3.119,0.789c-0.502,0.1-0.99,0.176-1.467,0.226s-0.939,0.075-1.391,0.075
		c-5.664,0-9.973-1.616-12.93-4.849s-4.436-7.379-4.436-12.44c0-3.658,0.477-6.627,1.43-8.908c0.951-2.28,2.279-4.098,3.984-5.451
		c0.701-0.551,1.453-1.102,2.254-1.653c0.801-0.551,1.604-1.002,2.406-1.353c0.701-0.351,1.391-0.65,2.066-0.902
		c0.678-0.25,1.342-0.476,1.992-0.677c0.551-0.15,1.09-0.263,1.617-0.339c0.525-0.074,1.09-0.112,1.691-0.112V172.967z
		 M195.084,175.447c-2.756,0.051-5.111,1.053-7.066,3.008c-1.953,1.954-2.906,4.836-2.855,8.645c0,0.15,0,0.301,0,0.451
		s0,0.301,0,0.451c1.654,0.201,3.307,0.326,4.961,0.375c1.654,0.051,3.258,0.076,4.811,0.076c1.453,0,2.857-0.025,4.211-0.076
		c1.354-0.049,2.654-0.1,3.908-0.15c0-3.507-0.652-6.502-1.955-8.982s-3.307-3.721-6.014-3.721V175.447z"/>
	<path d="M215.154,197.474h2.256v3.082c0,2.005,0.789,3.509,2.367,4.511c1.58,1.002,3.32,1.604,5.225,1.804
		c0.35,0.05,0.701,0.088,1.053,0.112c0.35,0.026,0.701,0.038,1.053,0.038c2.355,0,4.41-0.64,6.164-1.921
		c1.754-1.279,2.631-2.926,2.631-4.936c0-1.205-0.313-2.258-0.939-3.162c-0.627-0.905-1.516-1.508-2.668-1.81
		c-1.004-0.251-2.08-0.515-3.232-0.79c-1.154-0.276-2.307-0.565-3.459-0.867c-0.752-0.201-1.492-0.414-2.217-0.641
		c-0.727-0.225-1.441-0.465-2.143-0.717c-1.805-0.701-3.32-1.668-4.549-2.899s-1.842-3.001-1.842-5.312
		c0-4.068,1.479-6.918,4.436-8.551s6.189-2.449,9.697-2.449c1.754,0,3.445,0.176,5.074,0.526s3.17,0.802,4.623,1.353
		c-0.102,1.354-0.176,2.732-0.225,4.135c-0.051,1.404-0.102,2.857-0.15,4.36l-2.105-0.075v-1.729c0-1.854-0.865-3.309-2.594-4.36
		s-3.621-1.628-5.676-1.729c-0.1,0-0.188,0-0.262,0c-0.076,0-0.139,0-0.189,0c-2.506,0-4.271,0.453-5.299,1.357
		s-1.666,1.908-1.916,3.013c-0.051,0.302-0.09,0.591-0.113,0.866c-0.025,0.277-0.037,0.565-0.037,0.866
		c0,1.608,0.65,2.876,1.953,3.806c1.303,0.929,3.383,1.645,6.24,2.146c4.459,0.754,7.768,1.81,9.922,3.164
		c2.154,1.355,3.232,3.516,3.232,6.479c0,4.118-1.729,7.245-5.186,9.38c-3.459,2.133-7.268,3.201-11.428,3.201
		c-0.801,0-1.604-0.025-2.404-0.075c-0.803-0.05-1.58-0.15-2.33-0.301c-0.953-0.101-1.906-0.276-2.857-0.526
		c-0.953-0.251-1.93-0.525-2.932-0.826c0.301-1.303,0.5-2.656,0.602-4.06c0.1-1.403,0.174-2.831,0.225-4.285
		c0-0.351,0-0.701,0-1.052s0-0.701,0-1.053V197.474z"/>
	<path d="M245.6,179.808v-1.579l5.863-2.631v-5.262c0-0.951-0.025-1.917-0.074-2.895c-0.051-0.977-0.127-1.966-0.227-2.969
		c0.701-0.199,1.365-0.426,1.992-0.677c0.627-0.25,1.215-0.501,1.768-0.751c0.551-0.251,1.051-0.501,1.502-0.752
		c0.451-0.25,0.828-0.477,1.129-0.678l0.902,0.752c-0.102,0.803-0.201,1.629-0.301,2.48c-0.102,0.854-0.178,1.705-0.227,2.557
		c-0.102,1.003-0.176,1.992-0.225,2.969c-0.051,0.978-0.076,1.893-0.076,2.744v2.781l10.299-0.451l-0.676,4.061h-9.623v19.695
		c0,1.754,0.301,3.07,0.902,3.945c0.602,0.878,1.678,1.316,3.232,1.316c0.752,0,1.439-0.1,2.066-0.301
		c0.627-0.199,1.166-0.451,1.617-0.752c0.15-0.049,0.287-0.113,0.414-0.188c0.123-0.076,0.236-0.138,0.338-0.188l0.977,1.202
		l-3.607,3.984c-0.201,0.25-0.59,0.438-1.166,0.564c-0.576,0.125-1.191,0.213-1.842,0.263c-0.301,0.05-0.613,0.075-0.939,0.075
		s-0.639,0-0.939,0c-2.006,0-3.734-0.552-5.188-1.654c-1.453-1.102-2.18-3.182-2.18-6.238v-21.725L245.6,179.808z"/>
	<path d="M271.533,197.474h2.256v3.082c0,2.005,0.789,3.509,2.367,4.511c1.58,1.002,3.32,1.604,5.225,1.804
		c0.35,0.05,0.701,0.088,1.053,0.112c0.35,0.026,0.701,0.038,1.053,0.038c2.355,0,4.41-0.64,6.164-1.921
		c1.754-1.279,2.631-2.926,2.631-4.936c0-1.205-0.313-2.258-0.939-3.162c-0.627-0.905-1.516-1.508-2.668-1.81
		c-1.004-0.251-2.08-0.515-3.232-0.79c-1.154-0.276-2.307-0.565-3.459-0.867c-0.752-0.201-1.492-0.414-2.217-0.641
		c-0.727-0.225-1.441-0.465-2.143-0.717c-1.805-0.701-3.32-1.668-4.549-2.899s-1.842-3.001-1.842-5.312
		c0-4.068,1.479-6.918,4.436-8.551s6.189-2.449,9.697-2.449c1.754,0,3.445,0.176,5.074,0.526s3.17,0.802,4.623,1.353
		c-0.102,1.354-0.176,2.732-0.225,4.135c-0.051,1.404-0.102,2.857-0.15,4.36l-2.105-0.075v-1.729c0-1.854-0.865-3.309-2.594-4.36
		s-3.621-1.628-5.676-1.729c-0.1,0-0.188,0-0.262,0c-0.076,0-0.139,0-0.189,0c-2.506,0-4.271,0.453-5.299,1.357
		s-1.666,1.908-1.916,3.013c-0.051,0.302-0.09,0.591-0.113,0.866c-0.025,0.277-0.037,0.565-0.037,0.866
		c0,1.608,0.65,2.876,1.953,3.806c1.303,0.929,3.383,1.645,6.24,2.146c4.459,0.754,7.768,1.81,9.922,3.164
		c2.154,1.355,3.232,3.516,3.232,6.479c0,4.118-1.729,7.245-5.186,9.38c-3.459,2.133-7.268,3.201-11.428,3.201
		c-0.801,0-1.604-0.025-2.404-0.075c-0.803-0.05-1.58-0.15-2.33-0.301c-0.953-0.101-1.906-0.276-2.857-0.526
		c-0.953-0.251-1.93-0.525-2.932-0.826c0.301-1.303,0.5-2.656,0.602-4.06c0.1-1.403,0.174-2.831,0.225-4.285
		c0-0.351,0-0.701,0-1.052s0-0.701,0-1.053V197.474z"/>
</g>
<g>
</g>
</svg>
